<?xml version="1.0" standalone="no"?>
<!DOCTYPE svg PUBLIC "-//W3C//DTD SVG 20010904//EN"
 "http://www.w3.org/TR/2001/REC-SVG-20010904/DTD/svg10.dtd">
<svg version="1.0" xmlns="http://www.w3.org/2000/svg"
 width="700.000000pt" height="700.000000pt" viewBox="0 0 700.000000 700.000000"
 preserveAspectRatio="xMidYMid meet">
<metadata>
Created by potrace 1.11, written by Peter Selinger 2001-2013
</metadata>
<g transform="translate(0.000000,700.000000) scale(0.100000,-0.100000)"
fill="#000000" stroke="none">
<path d="M1545 5019 c-110 -15 -289 -65 -390 -109 -477 -210 -797 -602 -907
-1114 -31 -147 -32 -447 0 -592 138 -640 621 -1107 1253 -1215 161 -28 431
-23 574 10 247 57 455 156 637 302 31 25 481 466 998 980 518 514 970 953
1004 977 82 58 139 87 244 122 339 112 711 18 960 -244 170 -179 252 -389 252
-644 0 -426 -282 -784 -707 -898 -53 -14 -103 -18 -223 -18 -139 1 -164 3
-245 28 -119 36 -214 83 -300 147 -38 29 -191 173 -340 320 l-270 268 -214
-211 -213 -211 263 -264 c145 -145 298 -293 339 -327 464 -390 1124 -468 1670
-197 154 77 272 162 400 291 220 220 354 468 422 783 32 147 32 446 0 592 -91
418 -314 752 -657 981 -166 111 -340 184 -545 229 -101 22 -388 31 -503 16
-258 -35 -509 -136 -723 -294 -38 -28 -496 -477 -1019 -997 -841 -839 -961
-954 -1043 -1008 -166 -108 -352 -159 -547 -149 -251 13 -456 107 -631 289
-171 178 -254 387 -254 638 0 252 87 465 262 647 150 154 334 244 557 273 213
27 440 -28 630 -154 43 -29 174 -151 350 -326 154 -154 284 -280 289 -280 4 0
102 95 217 210 l210 210 -270 271 c-351 352 -430 417 -631 517 -127 64 -211
93 -359 127 -102 24 -147 28 -295 31 -96 1 -206 -2 -245 -7z"/>
</g>
</svg>
